PathFileType	4	(X/Y/Z)	C:\Users\Basilio\Documents\Thesis Gigler\squatting_fais\c3dfiles\076\SJ_pre2\markers_experimental.trc
DataRate	CameraRate	NumFrames	NumMarkers	Units	OrigDataRate	OrigDataStartFrame	OrigNumFrames
200.000000	200.000000	4	61	mm	200.000000	546	1456
Frame#	Time	FHD			LBHD			RBHD			C7			T10			CLAV			LSHO			LUUPA			LMUPA			LDUPA			LLEP			LMEP			LRAD			LUL			LRFIN			RSHO			RUPA1			RMUPA			RDUPA			RLEP			RMEP			RRAD			RUL			RUFIN			LASI			RASI			USACR			LSACR			RSACR			LTHI1			LTHI2			LTHI3			LTHI4			LLFC			LMFC			LTIB1			LTIB2			LTIB3			LTIB4			LLMAL			LMMAL			LHEE			LMT1			LMT2			LMT5			RTHI			RTHI2			RTHI3			RTHI4			RLFC			RMFC			RTIB1			RTIB2			RTIB3			RTIB4			RLMAL			RMMAL			RHEE			RMT1			RMT2			RMT5			
		X1	Y1	Z1	X2	Y2	Z2	X3	Y3	Z3	X4	Y4	Z4	X5	Y5	Z5	X6	Y6	Z6	X7	Y7	Z7	X8	Y8	Z8	X9	Y9	Z9	X10	Y10	Z10	X11	Y11	Z11	X12	Y12	Z12	X13	Y13	Z13	X14	Y14	Z14	X15	Y15	Z15	X16	Y16	Z16	X17	Y17	Z17	X18	Y18	Z18	X19	Y19	Z19	X20	Y20	Z20	X21	Y21	Z21	X22	Y22	Z22	X23	Y23	Z23	X24	Y24	Z24	X25	Y25	Z25	X26	Y26	Z26	X27	Y27	Z27	X28	Y28	Z28	X29	Y29	Z29	X30	Y30	Z30	X31	Y31	Z31	X32	Y32	Z32	X33	Y33	Z33	X34	Y34	Z34	X35	Y35	Z35	X36	Y36	Z36	X37	Y37	Z37	X38	Y38	Z38	X39	Y39	Z39	X40	Y40	Z40	X41	Y41	Z41	X42	Y42	Z42	X43	Y43	Z43	X44	Y44	Z44	X45	Y45	Z45	X46	Y46	Z46	X47	Y47	Z47	X48	Y48	Z48	X49	Y49	Z49	X50	Y50	Z50	X51	Y51	Z51	X52	Y52	Z52	X53	Y53	Z53	X54	Y54	Z54	X55	Y55	Z55	X56	Y56	Z56	X57	Y57	Z57	X58	Y58	Z58	X59	Y59	Z59	X60	Y60	Z60	X61	Y61	Z61	

547	2.73	2.064772605895997	1184.74609375	-881.2655029296877	-143.0865936279297	1133.434692382813	-981.5172119140627	-132.6910552978516	1136.81689453125	-828.6274414062502	-208.7531890869141	1068.35693359375	-908.1069946289065	-432.9787597656251	855.5529785156252	-928.1251220703127	-142.3451232910157	929.3806152343752	-906.1304321289065	-155.808822631836	984.9295654296877	-1073.364379882813	-231.0496215820313	873.713073730469	-1220.139892578125	-253.5307312011719	832.761901855469	-1206.811279296875	-268.0509948730469	833.694763183594	-1264.799072265625	-305.7320861816407	806.1639404296877	-1299.521240234375	-374.2521972656251	861.5848388671877	-1290.98046875	-473.1205139160157	723.4897460937501	-1142.090087890625	-448.6654357910157	665.4761352539064	-1161.933227539063	-429.5206604003907	716.9680175781251	-1097.302001953125	-183.9152221679688	978.5489501953127	-746.5822143554689	-296.4902648925782	907.2268676757815	-604.2147216796876	-301.6188049316407	856.4707641601565	-605.8582153320314	-340.8681640625001	870.6961669921877	-561.6990966796876	-386.2507629394532	816.2796630859377	-541.3081054687501	-453.4841613769532	860.603454589844	-582.0279541015626	-492.3943786621095	709.8094482421876	-733.0256347656251	-438.9384765625001	705.2757568359376	-758.1778564453126	-464.9506225585939	655.6687011718751	-701.0049438476564	-420.6505432128907	634.7019653320314	-1028.80224609375	-425.1110229492189	632.3161010742189	-834.1152954101565	-510.1203613281251	781.5417480468752	-930.468444824219	-535.6730346679689	767.4586181640626	-959.8636474609377	-538.0620727539064	763.8826293945314	-902.4852294921877	-460.5171508789064	608.3395996093751	-1142.649169921875	-380.4628295898438	584.7391967773439	-1142.87744140625	-351.7846679687501	612.7267456054689	-1113.621826171875	-357.2589416503907	528.7203979492189	-1153.286376953125	-241.9610443115235	422.522918701172	-1147.684204101563	-230.1153259277344	414.9776000976564	-1039.80078125	-243.961410522461	282.3822326660157	-1076.343872070313	-279.8074340820313	236.8694305419922	-1144.486938476563	-256.9465332031251	231.1232452392579	-1104.341796875	-307.6509399414063	171.887435913086	-1073.838500976563	-398.5215759277345	78.49112701416017	-1137.631591796875	-381.0151977539063	87.03915405273439	-1051.700317382813	-463.1575622558595	43.71675872802735	-1094.788452148438	-253.5548706054688	53.96406936645509	-1066.453491210938	-246.3014678955079	54.47378540039064	-1104.821166992188	-261.9238281250001	43.61768341064454	-1156.514404296875	-406.3720092773439	537.4927368164064	-711.3900146484376	-338.5718078613282	535.7938232421876	-700.5355834960939	-318.0965881347657	561.0075683593751	-714.4309692382814	-294.8410644531251	462.269989013672	-699.7211914062501	-253.5820617675782	425.764617919922	-697.5760498046876	-228.8562774658204	421.9733276367189	-800.6990356445315	-228.9773712158204	290.6306152343751	-715.3067626953126	-325.9609985351563	241.6513977050782	-692.7019042968751	-284.8829650878907	224.1326293945313	-708.1453857421876	-291.4309692382813	180.1498107910157	-745.9286499023439	-400.644012451172	77.00134277343751	-717.9460449218751	-380.2616882324219	89.28465270996095	-801.5410156250002	-461.2595520019532	50.38043212890626	-765.2144775390626	-253.5067291259766	52.744441986084	-778.9725341796877	-250.9126281738282	56.36335754394533	-733.4400634765626	-277.7370300292969	34.43098831176759	-680.5822753906251	
548	2.735	2.169359683990479	1184.65234375	-881.3018188476565	-142.9370269775391	1133.344360351563	-981.6066894531252	-132.5917358398438	1136.773071289063	-828.6319580078127	-208.6392822265626	1068.277099609375	-908.1328735351565	-432.9230957031251	855.5385742187502	-928.2331542968752	-142.2889404296875	929.277282714844	-906.2272949218752	-155.7244873046875	984.8596191406252	-1073.490600585938	-230.9418945312501	873.6665039062502	-1220.15966796875	-253.5241851806641	832.7504882812502	-1206.850708007813	-268.0342407226563	833.656188964844	-1264.84912109375	-305.6668090820313	806.1006469726565	-1299.595825195313	-374.1702880859376	861.5153808593752	-1291.0908203125	-473.0499877929689	723.4642333984376	-1142.169189453125	-448.5889282226564	665.4802856445314	-1161.987548828125	-429.6567687988282	716.9567871093751	-1097.352172851563	-183.8554229736328	978.416198730469	-746.6774902343751	-296.3550109863282	907.1401977539065	-604.2695922851564	-301.5372009277344	856.3494873046877	-605.9223632812501	-340.7683715820313	870.6148681640627	-561.7723999023439	-386.2477111816407	815.954040527344	-541.3259277343751	-453.4216308593751	860.6215820312502	-582.0848999023439	-492.408905029297	709.8283081054689	-733.1400756835939	-438.9675292968751	705.2451782226564	-758.2907104492189	-464.9363098144532	655.6408081054689	-701.1292114257814	-420.7347717285157	634.5123291015626	-1028.907592773438	-425.3166503906251	632.1203613281251	-834.183532714844	-510.080535888672	781.463806152344	-930.595153808594	-535.6380615234376	767.4087524414064	-959.9907226562502	-538.0583496093751	763.8316650390626	-902.610290527344	-460.4986572265626	608.3250732421876	-1142.76708984375	-380.3648681640626	584.6956176757814	-1142.976440429688	-351.6717224121094	612.6480102539064	-1113.707763671875	-357.0827941894532	528.6073608398439	-1153.32763671875	-241.8306274414063	422.4557189941407	-1147.73193359375	-230.0353240966797	414.9424133300782	-1039.859252929688	-243.8962860107422	282.3834838867188	-1076.437255859375	-279.7383422851563	236.8840942382813	-1144.50830078125	-256.9230041503907	231.1004486083985	-1104.382202148438	-307.6239013671876	171.8830261230469	-1073.873046875	-398.5875549316407	78.48286437988283	-1137.655151367188	-381.0212707519532	87.03688049316408	-1051.697875976563	-463.1972656250001	43.72147750854493	-1094.74951171875	-253.5648193359376	53.93333053588869	-1066.455078125	-246.2128601074219	54.45937347412111	-1104.787719726563	-262.0610046386719	43.66830444335938	-1156.587890625	-406.3540649414064	537.4829101562501	-711.4195556640626	-338.5186157226563	535.8421020507814	-700.5513916015626	-318.0903930664063	560.9837646484376	-714.4959106445314	-294.8214721679688	462.3257446289064	-699.7642822265626	-253.567611694336	425.7684020996095	-697.5850219726564	-228.7779235839844	421.9177246093751	-800.7495727539065	-228.9492492675782	290.6176452636719	-715.3487548828126	-325.9022827148438	241.7190704345704	-692.6538085937501	-284.8654785156251	224.1969146728516	-708.1304321289064	-291.4250488281251	180.1390838623047	-745.9008178710939	-400.6107788085939	76.99372863769533	-717.9763183593751	-380.2671508789063	89.26576995849611	-801.5351562500002	-461.2413330078126	50.38394165039064	-765.2814331054689	-253.5348663330079	52.7237014770508	-778.9709472656252	-250.8361358642579	56.38867187500001	-733.4614868164064	-277.7625732421876	34.43393325805665	-680.5708007812501	
549	2.74	2.260272741317749	1184.550415039063	-881.3164672851565	-142.8053588867188	1133.2666015625	-981.615905761719	-132.5156555175782	1136.6572265625	-828.7067871093752	-208.5632476806641	1068.226684570313	-908.2041625976565	-432.9060058593751	855.5373535156252	-928.2913818359377	-142.2393493652344	929.1946411132815	-906.258239746094	-155.6167907714844	984.9239501953127	-1073.52294921875	-231.0111541748047	873.6474609375002	-1220.295776367188	-253.5791778564454	832.8195800781252	-1206.981811523438	-267.8489074707032	833.6248168945315	-1264.880249023438	-305.5646057128907	806.139831542969	-1299.650634765625	-374.2038269042969	861.5302734375002	-1291.129272460938	-473.0834045410157	723.4659423828126	-1142.25732421875	-448.6014099121095	665.4839477539064	-1162.077026367188	-429.6627502441407	716.8608398437501	-1097.423217773438	-183.7441558837891	978.339294433594	-746.7678833007814	-296.2911682128907	907.015319824219	-604.3723144531251	-301.4035644531251	856.2351684570315	-606.0361328125001	-340.6639099121094	870.5485839843752	-561.8666381835939	-386.2015686035157	815.8544921875002	-541.4392700195314	-453.3487854003907	860.5499267578127	-582.1585693359376	-492.4090576171876	709.7745971679689	-733.1791381835939	-438.9607849121095	705.2432250976564	-758.4125366210939	-464.9198608398439	655.6209106445314	-701.1885375976564	-420.6524353027345	634.4981689453126	-1029.034301757813	-425.1621398925782	632.1376953125001	-834.268249511719	-510.0722045898439	781.4050292968752	-930.6607666015627	-535.6037597656251	767.3484497070314	-960.0909423828127	-537.9647827148439	763.7949829101564	-902.670349121094	-460.4165649414064	608.2312011718751	-1142.762939453125	-380.3247070312501	584.6417236328126	-1143.06982421875	-351.6430969238282	612.5950927734376	-1113.751342773438	-356.9761657714844	528.5184936523439	-1153.34326171875	-241.8937683105469	422.4427490234376	-1147.830810546875	-229.9838256835938	414.9353942871095	-1039.947875976563	-243.9359741210938	282.3103637695313	-1076.485107421875	-279.8763122558594	236.7821197509766	-1144.502563476563	-256.9026184082032	231.0874176025391	-1104.386352539063	-307.6289367675782	171.849853515625	-1073.8701171875	-398.5055541992189	78.4571990966797	-1137.661499023438	-381.0180358886719	87.0389862060547	-1051.696655273438	-463.102264404297	43.68071746826173	-1094.76318359375	-253.5470886230469	53.96888351440431	-1066.457763671875	-246.2807769775391	54.41593551635744	-1104.803466796875	-262.0653381347657	43.67263412475587	-1156.525024414063	-406.3817749023439	537.4916381835939	-711.4996948242189	-338.5095214843751	535.8085327148439	-700.6083984375001	-318.0971069335938	561.0052490234376	-714.5272216796876	-294.8171691894532	462.3287963867189	-699.7548217773439	-253.5587005615235	425.7539978027345	-697.6212768554689	-228.707504272461	421.9516906738282	-800.7771606445315	-228.9983367919922	290.6212768554688	-715.3113403320314	-325.9602966308594	241.6111145019532	-692.6902465820314	-284.8404846191407	224.1715240478516	-708.1347656250001	-291.3870849609376	180.1244506835938	-745.8800048828126	-400.6033325195314	76.99706268310548	-717.9702758789064	-379.3817749023438	89.10497283935548	-801.352478027344	-461.245574951172	50.3229103088379	-765.2254638671876	-253.5506134033204	52.69117736816408	-778.9712524414065	-250.8944702148438	56.37427520751955	-733.4796752929689	-277.7618103027344	34.41327667236329	-680.5758056640626	
550	2.745	2.37391996383667	1184.410034179688	-881.3007812500002	-142.7228240966797	1133.24072265625	-981.7045898437502	-132.4233551025391	1136.587280273438	-828.6822509765627	-208.5246276855469	1068.202758789063	-908.2668457031252	-432.8293762207032	855.536315917969	-928.417663574219	-142.068115234375	929.1262817382815	-906.2702636718752	-155.6260681152344	984.824645996094	-1073.639282226563	-230.8980102539063	873.6348876953127	-1220.382080078125	-253.5414428710938	832.7960205078127	-1207.065551757813	-267.8424682617188	833.557800292969	-1264.991088867188	-305.6589050292969	806.0961914062502	-1299.822998046875	-374.1461181640626	861.4678955078127	-1291.190551757813	-473.0533142089845	723.4395141601564	-1142.315795898438	-448.4557495117189	665.4069213867189	-1162.167236328125	-429.6636047363282	716.8709716796876	-1097.505249023438	-183.7120208740235	978.241882324219	-746.8037109375001	-296.1759948730469	906.9019165039065	-604.4903564453126	-301.3543395996094	856.141540527344	-606.0999145507814	-340.5832214355469	870.4627075195315	-561.8930664062501	-386.0953063964845	815.7969970703127	-541.5239257812501	-453.2586059570314	860.5313110351565	-582.1828613281251	-492.4071350097657	709.7675781250001	-733.3268432617189	-438.9871520996095	705.2718505859376	-758.5322265625001	-464.8675231933595	655.6269531250001	-701.3537597656251	-420.3886108398439	634.5277099609376	-1028.939575195313	-425.1555175781251	632.2796630859376	-834.1383056640627	-510.0665588378907	781.420837402344	-930.732360839844	-535.5724487304689	767.3055419921876	-960.2011718750002	-537.9830322265626	763.7925415039064	-902.7700195312502	-460.4154052734376	608.1447143554689	-1142.82373046875	-380.2761840820313	584.5575561523439	-1143.100463867188	-351.5481872558594	612.5366821289064	-1113.840087890625	-357.0874633789063	528.5710449218751	-1153.489990234375	-241.7561187744141	422.3710937500001	-1147.822021484375	-229.8910064697266	414.8854370117189	-1039.987548828125	-243.8661651611329	282.2762756347657	-1076.540649414063	-279.6825866699219	236.7818603515626	-1144.513793945313	-256.8624572753907	231.0759429931641	-1104.391357421875	-307.5857543945313	171.8217926025391	-1073.866943359375	-398.5322875976564	78.45272064208986	-1137.648193359375	-381.0097351074219	87.05049133300783	-1051.676025390625	-463.1741027832032	43.67725372314454	-1094.766967773438	-253.540512084961	53.93175888061525	-1066.433959960938	-246.2384948730469	54.47263336181642	-1104.876098632813	-262.0158996582032	43.67461776733399	-1156.546875	-406.3741455078126	537.4758300781251	-711.5772094726564	-338.5313415527344	535.7968750000001	-700.6633300781251	-318.0458984375001	560.9888916015626	-714.5877685546876	-294.8975219726563	462.1909179687501	-699.8291015625001	-253.5785369873047	425.744842529297	-697.6111450195314	-228.8132934570313	421.9892883300782	-800.7786865234377	-229.0063018798829	290.6444702148438	-715.3223266601564	-325.8887634277344	241.7227172851563	-692.6700439453126	-284.8770141601563	224.1780395507813	-708.1251831054689	-291.3717041015626	180.1109466552735	-745.8571166992189	-400.6058959960939	76.98933410644533	-717.9768066406251	-380.2824096679688	89.30480957031251	-801.5421142578127	-461.2344665527345	50.34246063232423	-765.2695922851564	-253.5723419189454	52.69935226440431	-778.9980468750002	-250.8505554199219	56.36583328247072	-733.4706420898439	-277.7423706054688	34.4559440612793	-680.5814819335939	
